/* XPM */
static char *_5c3cd8a03e94b1ae346a28569674f514OSObCCWvn3srOMw[] = {
/* columns rows colors chars-per-pixel */
"64 64 194 2 ",
"   c None",
".  c #0A0B0C",
"X  c #06090A",
"o  c #1E0807",
"O  c #0D0F10",
"+  c #0E1312",
"@  c #061616",
"#  c #121414",
"$  c #1A1A1A",
"%  c #171718",
"&  c #260506",
"*  c #310304",
"=  c #3F1819",
"-  c #2A2A1D",
";  c #081F28",
":  c #371021",
">  c #092B36",
",  c #142C34",
"<  c #0F313E",
"1  c #17323B",
"2  c #1A333C",
"3  c #08252A",
"4  c #232323",
"5  c #2B2C2C",
"6  c #262A2C",
"7  c #20203B",
"8  c #343434",
"9  c #3B3935",
"0  c #3A3A3A",
"q  c #332D29",
"w  c #420B0C",
"e  c #431A1A",
"r  c #4D1C1D",
"t  c #571616",
"y  c #570809",
"u  c #670305",
"i  c #601E1F",
"p  c #582828",
"a  c #452B2C",
"s  c #652425",
"d  c #7A3030",
"f  c #66393A",
"g  c #784124",
"h  c #6A6B38",
"j  c #0C3B47",
"k  c #133C4A",
"l  c #393E41",
"z  c #32315B",
"x  c #3D3D70",
"c  c #1A4C5C",
"v  c #094357",
"b  c #3D4443",
"n  c #0C536B",
"m  c #0B5B77",
"M  c #2C5C6D",
"N  c #3D6977",
"B  c #454545",
"V  c #4C4C4C",
"C  c #474748",
"Z  c #564848",
"A  c #5E504F",
"S  c #525252",
"D  c #5B5B5B",
"F  c #794140",
"G  c #414076",
"H  c #625F60",
"J  c #5E6466",
"K  c #4F6D78",
"L  c #616161",
"P  c #6B6B6C",
"I  c #686767",
"U  c #6F6F70",
"Y  c #6F7070",
"T  c #727373",
"R  c #7D7E7D",
"E  c #776969",
"W  c #8A0404",
"Q  c #9A0004",
"!  c #940709",
"~  c #911618",
"^  c #A60004",
"/  c #A80306",
"(  c #B80707",
")  c #932B2A",
"_  c #B82122",
"`  c #C30203",
"'  c #C30D0F",
"]  c #D40102",
"[  c #DD0203",
"{  c #DA0C0C",
"}  c #D01616",
"|  c #E10102",
" . c #EC0202",
".. c #E40D0D",
"X. c #E90A0B",
"o. c #FD0000",
"O. c #F40101",
"+. c #FD1C22",
"@. c #F9222A",
"#. c #8F6D39",
"$. c #FA3F4B",
"%. c #914A4E",
"&. c #827676",
"*. c #BD6B6C",
"=. c #DC5C5C",
"-. c #828245",
";. c #96964F",
":. c #ACAB5C",
">. c #CECE69",
",. c #F2F27A",
"<. c #0D6683",
"1. c #0D6887",
"2. c #11708E",
"3. c #127699",
"4. c #0E789C",
"5. c #0F7CA1",
"6. c #137DA1",
"7. c #51519B",
"8. c #4F4C92",
"9. c #6B6AD2",
"0. c #7D7DF6",
"q. c #817FFD",
"w. c #0F83AA",
"e. c #1384AC",
"r. c #1080A7",
"t. c #0F8AB4",
"y. c #118CB6",
"u. c #128FBA",
"i. c #1093BF",
"p. c #758185",
"a. c #1195C2",
"s. c #139CCA",
"d. c #1499C6",
"f. c #13A5D5",
"g. c #14A7D8",
"h. c #19A7D8",
"j. c #17B0E4",
"k. c #1BB6EC",
"l. c #18B1E5",
"z. c #1BAFE2",
"x. c #54B5E4",
"c. c #5DB9E6",
"v. c #62BCE6",
"b. c #6BBFE7",
"n. c #6ABFE8",
"m. c #7AC6E9",
"M. c #848484",
"N. c #8B8B8B",
"B. c #8E908F",
"V. c #8C9497",
"C. c #969696",
"Z. c #9C9C9C",
"A. c #898F93",
"S. c #A09191",
"D. c #9CA8AD",
"F. c #A7A7A7",
"G. c #ADADAD",
"H. c #A8A7A7",
"J. c #BDBDBD",
"K. c #B4B4B5",
"L. c #AEABAC",
"P. c #F2909D",
"I. c #EB96A3",
"U. c #F9F981",
"Y. c #8180FC",
"T. c #A1C0CD",
"R. c #A4C6D4",
"E. c #B7CFD9",
"W. c #B5CBD5",
"Q. c #B0C4CE",
"!. c #8BCDEB",
"~. c #84CAEC",
"^. c #96CDE7",
"/. c #98D1EC",
"(. c #A7DAF1",
"). c #B1DAED",
"_. c #BAE2F4",
"`. c #C5C5C5",
"'. c #CCCCCC",
"]. c #C4CACC",
"[. c #C5D2D8",
"{. c #D4D4D4",
"}. c #DDDEDE",
"|. c #D8D7D8",
" X c #CADAE1",
".X c #C9E8F6",
"XX c #E1E1E1",
"oX c #ECECEC",
"OX c #ECF5FA",
"+X c #F5F5F5",
"@X c #FFFFFF",
"#X c gray99",
"$X c #FEFEFE",
"%X c #F7F8F7",
/* pixels */
"                                                          b b b B                                                               ",
"                                                      D N.'.XXXXXXB.L                                                           ",
"                                                      U %XoX}.+X%X$XR                                                           ",
"                                                      T %XG.P oX$X$XR                                                           ",
"                                                      T +X7.M `.$X$XR                                                           ",
"                                                      T %X+X{.#X$X#XM.                                                          ",
"                                                    5 Q.oX#X#X+X+X{.{.D                                                         ",
"                                                  n M M.'.%X+XXXXX`.N.M v                                                       ",
"                                              j 3.f.h.4.K J J J J N <.5.w.m >                                                   ",
"                                            3.s.k.k.k.k.s.u.u.y.5.y.d.a.y.y.4.<.3                                               ",
"                                          6.z.k.k.k.k.k.k.j.j.h.g.s.d.s.a.t.y.t.<.                                              ",
"                                        e.k.k.k.k.k.k.k.j.j.j.h.g.s.s.s.d.y.y.y.y.<.j                                           ",
"                                      ; h.k.k.k.k.k.k.k.j.j.j.f.g.s.s.s.s.t.y.y.y.r.>                                           ",
"                                    . 0 c e.h.k.k.k.k.j.j.j.l.g.g.s.s.s.a.t.y.w.1.k 4 .                                         ",
"                                      5 B 5 c 2.k.k.j.j.l.l.j.f.g.s.s.s.a.t.n k - 5 4                                           ",
"                                      . $ 0 0 0 k v d.s.s.s.i.u.t.t.t.w.j > , 5 6 # .                                           ",
"                                      . b 5 4 0 8 b 1 , 1 1 , , , , , , 0 4 5 $ 4 5 #                                           ",
"                                      + H I S 4 4 5 8 8 8 8 8 5 5 5 5 5 4 $ $ 8 0 8 #                                           ",
"                                      O M.Z.D S S B B C 0 9 0 0 9 8 0 8 0 0 8 0 0 8 #                                           ",
"                                      O M.F.H S S J [.[.V.I S C V V C C 0 0 0 0 0 8 #                                           ",
"                                      + M.H.J S Y T.c.c.!.[.D V V V V C B 0 0 0 0 8 #                                           ",
"                                      . M.H.D S C.!.x.x.v.E.D V V V V B C 0 0 0 0 8 #                                           ",
"                                      + M.F.L S C.!.v._.^.Q.D C S V C C B 8 0 0 0 8 #                                           ",
"                                      . M.F.H S C.!.x.x.^.A.S V V C V C C 0 0 0 0 8 #                                           ",
"                                      O M.F.H S T T.x.x.c.E.L V S V V C B 0 0 0 0 8 #                                           ",
"                                      O M.F.L S M.^.m..X/.E.D B V V C C 0 0 0 0 0 8 #                                           ",
"                                      O M.F.D S C.!.x.x.v.E.D V S C V B C 0 0 0 0 8 #                                           ",
"                                      O M.H.H S Y R.x.x.v.E.D V V V V B B 0 0 0 0 8 #                                           ",
"                                      O M.H.J S S p./.m.).Z.S V V V C B 9 8 0 0 0 8 #                                           ",
"                                      O M.F.D S J G.b.c.).].D V S V C e w w q 8 0 8 #                                           ",
"                                      O M.F.L S C.!.x.x.v.E.D V V B r ` O.O.W y 5 8 #                                           ",
"                                      O M.F.H S C.!.v..X!.W.D C B t ] o.o.o.O.] # 0 #                                           ",
"                                      + M.F.L V C.!.x.v.^.A.S V B u O.o.o.o.o.( % 8 #                                           ",
"                                      . M.F.L S C.!.x.x.v.W.L V a g ' o.o.o.o.o 5 0 #                                           ",
"                                      + M.F.L S C.!.b._.!.W.D C - -.W O.o.` u 8.x 4 #                                           ",
"                                      . M.F.L S C.!.c.m./.V.S C q >.#.( ` : 8.b.7.4 #                                           ",
"                                      O M.F.L S C.).m.x.c.E.D C 4 ,.U.#.x q.q.9.# 8 #                                           ",
"                                      O M.F.D S T H.OX(.~.E.D V 9 :.U.U.7.q.q.G 5 8 #                                           ",
"                                      O M.F.J S S G.#X$XOX}.D S V 8 ;.h 7 q.z 8 0 8 #                                           ",
"                                      O M.F.H S C.$X$X$X$XXXD C V V 8 % 8 # 5 0 0 8 #                                           ",
"                                      O M.F.L S C.$X$X$X$XXXD C V V V C b 0 0 0 0 8 #                                           ",
"                                      O M.F.D S C.$X$X$X+XF.D V V V V B C 0 0 0 0 8 #                                           ",
"                                      O M.F.L S N.+X$X$X$X'.D C V V V B b 9 0 0 0 8 #                                           ",
"                                      O M.F.H S P |.$X$X$XXXD V S V V B B 0 0 0 0 8 #                                           ",
"                                      + M.F.J S C.$X$X$X$XXXD V V V V B C 0 0 0 0 8 #                                           ",
"                                      . M.F.D S N.+X$X$X$XXXD C V V C C b 0 0 0 0 8 #                                           ",
"                                      + M.H.H S S `.$X$X$XXXD V S V V C b 9 0 0 0 8 #                                           ",
"                                      O M.H.D S S R #X$X+XF.S V V V V B B 9 0 0 0 8 #                                           ",
"                                      O M.H.H S M.{.#X$X#X`.D B S V C C 0 0 0 0 0 8 #                                           ",
"                                      O M.H.D S C.$X$X$X$XXXD V V C S C C 0 0 0 0 8 #                                           ",
"                                      O M.F.L S C.$X$X$X%XG.S C V V C B B 0 0 0 0 8 #                                           ",
"                                      O M.F.J S C.$X$X$X$X'.D C V S C C 0 0 0 0 0 8 #                                           ",
"                                      + p.F.J S C.$X$X$X$XXXD V V C S B C 0 0 0 0 8 #                                           ",
"                                      . M.F.L S C.$X$X$X#XG.D V S V C B B 0 0 0 0 8 #                                           ",
"                                      & *.L.I S C.$X$X$X#XJ.S V V V V B b 0 0 0 9 s &                                           ",
"                                      & =.I.%.S N.{.XX$X$X}.D V S V V C C 0 0 p s ! *                                           ",
"                                      & =.P.@.) F S I J.XX}.D B V V C C B a s / ^ Q *                                           ",
"                                      & =.P.@.o...} _ A E &.A Z Z Z Z ) ~ ! / / ^ Q *                                           ",
"                                      a } $.+.o.o.o.o.........{ { ' { ` ] ^ ^ ^ ^ W e                                           ",
"                                      H.%.Q [ o.o.o.o.o.o.o.o.[  . .| ] ` ^ ^ Q u f M.%                                         ",
"                                      I G.C.d W o.o.o.o.o.o.o.[  . .| ] ` ^ u t T C.P                                           ",
"                                        B B.G.S.t s ] | | [ | ] ] ` ] / e e &.p.N.0                                             ",
"                                            + N.Z.{.C 0 0 0 0 0 0 0 0 B K.N.N.# @                                               ",
"                                                  D L I L I L I L I L I L                                                       "
};
