/* XPM */
static char *_f53e62a455f433988851cd0dcb23dd4URT0aG86Vv9DLHCo[] = {
/* columns rows colors chars-per-pixel */
"64 64 209 2 ",
"   c #EAD4AC",
".  c #EAD3AB",
"X  c #E4A876",
"o  c #E4A977",
"O  c #E8B999",
"+  c #E8BA9A",
"@  c #E5B180",
"#  c #E7B693",
"$  c #EACFA9",
"%  c #EAD3AC",
"&  c #CB967A",
"*  c #C4886E",
"=  c #DAA689",
"-  c #E9CAA5",
";  c #E9C3A0",
":  c #EAD3AA",
">  c #EAD2A9",
",  c #E4A672",
"<  c #E4A773",
"1  c #E8B796",
"2  c #E8B897",
"3  c #E5AF7D",
"4  c #E7B48F",
"5  c #EACEA6",
"6  c #EAD3A9",
"7  c #E4A673",
"8  c #CA9375",
"9  c #C3856A",
"0  c #DAA485",
"q  c #EAC9A3",
"w  c #E9C29E",
"e  c #E5A874",
"r  c #E5A875",
"t  c #E8B695",
"y  c #EAC8A2",
"u  c #E9C19D",
"i  c #E6B07F",
"p  c #E9B997",
"a  c #E7B889",
"s  c #E6B787",
"d  c #EACDA6",
"f  c #EAD1A8",
"g  c #E6B07E",
"h  c #E8B795",
"j  c #E8BC9A",
"k  c #EACEA7",
"l  c #EAD1A9",
"z  c #CB9577",
"x  c #C4876C",
"c  c #C4886C",
"v  c #E0AD8D",
"b  c #E7B595",
"n  c #E8B696",
"m  c #E6AD81",
"M  c #E5A774",
"N  c #E7B28A",
"B  c #E9B897",
"V  c #C28469",
"C  c #E1AE8E",
"Z  c #E6AC80",
"A  c #E7B189",
"S  c #CB9578",
"D  c #E9C8A2",
"F  c #E9C39E",
"G  c #E9D1A8",
"H  c #E8C396",
"J  c #E8C295",
"K  c #E6B17F",
"L  c #E7B38E",
"P  c #E4A774",
"I  c #E9C69C",
"U  c #E9D2A9",
"Y  c #D1A181",
"T  c #CC9778",
"R  c #DCA888",
"E  c #E0AC8C",
"W  c #E6B594",
"Q  c #E6AD80",
"!  c #E5AA7A",
"~  c #E5AA7B",
"^  c #E7B087",
"/  c #E6B185",
"(  c #E9CBA0",
")  c #C3866A",
"_  c #E5A979",
"`  c #EACCA5",
"'  c #E6B180",
"]  c #E9C99E",
"[  c #CB9678",
"{  c #E7B48E",
"}  c #E9C39D",
"|  c #E8BD97",
" . c #E5AB7B",
".. c #E8C397",
"X. c #E9C99D",
"o. c #E6B081",
"O. c #E7B28C",
"+. c #EACFA7",
"@. c #E8B896",
"#. c #E8C7A1",
"$. c #EACDA5",
"%. c #E8BB99",
"&. c #E9BE9B",
"*. c #E7B688",
"=. c #E8B68F",
"-. c #E9BD9B",
";. c #EACBA4",
":. c #E9C6A1",
">. c #E9BD9A",
",. c #E9BC9A",
"<. c #E9CDA2",
"1. c #E8BC94",
"2. c #E6AE82",
"3. c #E9BB99",
"4. c #E9C7A2",
"5. c #E9C39F",
"6. c #CC9779",
"7. c #E4C8A1",
"8. c #E6B186",
"9. c #E3C49E",
"0. c #E9CBA4",
"q. c #CC9879",
"w. c #DFAB8C",
"e. c #E5AB7C",
"r. c #D2A282",
"t. c #DCA788",
"y. c #CF9B7D",
"u. c #CC987A",
"i. c #DFBD98",
"p. c #C98E72",
"a. c #DBB592",
"s. c #E9BE9C",
"d. c #E9C9A3",
"f. c #E1B191",
"g. c #D39F80",
"h. c #D0977A",
"j. c #E9BF9C",
"k. c #E7B788",
"l. c #E7B38B",
"z. c #E7B38D",
"x. c #E6B182",
"c. c #E8C297",
"v. c #E3B896",
"b. c #E8B993",
"n. c #E9C8A1",
"m. c #E5AD7C",
"M. c #E8B692",
"N. c #D3A685",
"B. c #D8A183",
"V. c #D8A284",
"C. c #E8C092",
"Z. c #E8C193",
"A. c #EACFA6",
"S. c #E9CAA3",
"D. c #E9C49F",
"F. c #E7B68D",
"G. c #E6B087",
"H. c #E7B689",
"J. c #E7B98A",
"K. c #E7BA8A",
"L. c #DFB08F",
"P. c #D5A484",
"I. c #EAD0A8",
"U. c #E9C7A1",
"Y. c #E8B991",
"T. c #E7BE90",
"R. c #E7B287",
"E. c #D8AE8C",
"W. c #D7A284",
"Q. c #D8A283",
"!. c #E3AB82",
"~. c #E6AE83",
"^. c #E9CCA2",
"/. c #E7B68C",
"(. c #E7B98C",
"). c #E9C29A",
"_. c #E8BC99",
"`. c #D9A384",
"'. c #E6C09C",
"]. c #E8C195",
"[. c #E7BC8F",
"{. c #E7B589",
"}. c #E7BD8F",
"|. c #E8C093",
" X c #E5A978",
".X c #E6B686",
"XX c #D4A786",
"oX c #E8BF91",
"OX c #E7BA8B",
"+X c #E6B086",
"@X c #E9C39C",
"#X c #E7B385",
"$X c #E9CCA1",
"%X c #E8BC8F",
"&X c #E9CCA3",
"*X c #E7BA8D",
"=X c #DCB793",
"-X c #D1A281",
";X c #DCB390",
":X c #D6A384",
">X c #E7B388",
",X c #E7BF91",
"<X c #E9C69F",
"1X c #E2AF8F",
"2X c #E7BD90",
"3X c #EACFA5",
"4X c #D8AF8D",
"5X c #E8BD9A",
"6X c #E8C199",
/* pixels */
"          . X o O +               . @ o # + $         % @ o # O $         % & * = O O O - % ; O O O O O O O -                   ",
": : : : : > , < 1 2 : : : : : : : > 3 < 4 2 5 : : : : 6 3 7 4 1 5 : : : : > 8 9 0 1 1 1 q : w 1 1 1 1 1 1 1 q : : : : : : : : : ",
": : : > e r t t 1 2 : : : : : : : > 3 < 4 2 5 : : : : 6 3 7 4 1 5 : : : : > 8 9 0 1 y > : : : > > > u 1 y > : : : : : : : : : : ",
": : : > , < 1 1 1 2 : : : : : : : > 3 < 4 2 5 : : : : 6 3 7 4 1 5 : : : : > 8 9 0 1 q : : : : : : : w 1 q : : : : : : : : : : : ",
"e e e r t t 1 2 > > : > e e e e e r 4 t 1 2 5 : : 6 i r 4 t 1 1 5 : : : : > 8 9 0 1 2 p q : : : : : : > : : : : a e e e e e e e ",
", , , < 1 1 1 2 : : : > , , , , , < 4 1 1 2 5 : : 6 3 7 4 1 1 1 5 : : : : > 8 9 0 1 1 1 q : : : : : : : : : : : s , , , , , , , ",
"t t t t 1 2 > > : > e r t t t t t t 1 2 d f g e e r 4 h d > j 1 2 p k : : > 8 9 0 1 1 1 q : : : : : : : : : : : u t t t t t t t ",
"1 1 1 1 1 2 : : : > , < 1 1 1 1 1 1 1 2 5 > 3 , , 7 4 1 5 : j 1 1 1 5 : : > 8 9 0 1 1 1 q : : : : : : : : : : : w 1 1 1 1 1 1 1 ",
"1 2 > > > f e e e r t h > > > > > > > f g r 4 t t h d > : : : > > l z x x c v b n 1 m M e e e r N B B B B B B B q > > > > > > > ",
"1 2 : : : > , , , < 1 2 : : : : : : : > 3 < 4 1 1 1 5 : : : : : : > 8 V V 9 C 1 1 1 Z , , , , 7 A 1 1 1 1 1 1 1 q : : : : : : : ",
"> > : > e r t t t t 1 2 : > i e e e e r 4 h d > > > : > S x x x x c v b b b 1 1 1 1 h t t t t h D > > > > > > > : : F B B B q : ",
": : : > , < 1 1 1 1 1 2 : > 3 , , , , < 4 2 5 : : : : > 8 V V V V 9 C 1 1 1 1 1 1 1 1 1 1 1 1 1 q : : : : : : : : : w 1 1 1 q : ",
": : : > , < 1 1 1 2 > f e r 4 t t t t h d > : G S x x c v b b b b b 1 1 1 1 1 1 1 1 1 1 1 1 m M e e e e e e H : : : : > > > : : ",
": : : > , < 1 1 1 2 : > , < 4 1 1 1 1 2 5 : : G 8 V V 9 C 1 1 1 1 1 1 1 1 1 1 1 1 1 1 1 1 1 Z , , , , , , , J : : : : : : : : : ",
"i i i K L 4 d d d d : > , P I d d d d d > U Y T R E E E W 1 1 1 1 1 1 1 1 1 Q ! ! ! ! ! ! ~ ^ L L L L L L L / i i i i i i i i i ",
", , , < 1 2 : : : : : > , P ( : : : : : : G 8 ) C 1 1 1 1 1 1 1 1 1 1 1 1 1 _ , , , , , , 7 A 1 1 1 1 1 1 1 Z , , , , , , , , , ",
"L L L 4 d ` i i i i i ' ] ] f : : U Y [ [ T R E W 1 1 1 Q ! ! ! ! ! ! ! ! ~ N L L L L L L { } d d d d d d d | L L L L L L L L L ",
"1 1 1 2 : > , , , , , P : : : : : G 8 V V ) C 1 1 1 1 1 _ , , , , , , , , 7 4 1 1 1 1 1 1 1 q : : : : : : : w 1 1 1 1 1 1 1 1 1 ",
"d d d ` i K L L L { ] ] : : : U Y T R E E E W 1 1 1 Q  ...] ] ] ] ] ] ] ] X.o.~ O.1 1 1 1 1 q : : : : : : : +.d d d d d d d d d ",
": : : > , < 1 1 1 2 : : : : : G 8 ) C 1 1 1 1 1 1 1 _ < ( : : : : : : : : 6 3 7 A 1 1 1 1 1 q : : : : : : : : : : : : : : : : : ",
": : : > , < 1 @.d d : U [ [ [ T R v #.$.%.1 1 1 1 1 _ < ( : w &.+.: : : : : ( X.*.! ! ! !  .=.-.-.&.;.: : : :.-.-.-.;.: : : : : ",
": : : > , < 1 2 : : : G V V V ) C 2 5 : j 1 1 1 1 1 _ < ( : j 1 5 : : : : : : 6 s , , , , 7 A 1 1 1 q : : : w 1 1 1 q : : : : : ",
"-.-.-.>., < 1 2 : U [ T E E E E W 1 ,.-.2 h Q ! !  ...] f : 5 d > : : : : : : : <.X.1.L L L 2.~ O.1 3.-.-.-.4.d d d 5.-.-.-.-.-.",
"1 1 1 h , < 1 2 : G V ) 1 1 1 1 1 1 1 1 1 h _ , , < ( : : : : : : : : : : : : : : : w 1 1 1 Z 7 A 1 1 1 1 1 q : : : w 1 1 1 1 1 ",
"! ! !  .L 4 d d : G V ) 1 1 1 h Q ! ! ! !  ...] ] ] f : : : : > Y [ [ [ [ 6.7.: : : +.d d $.| L 2.! ! ! O.1 3.-.-.-.8.! ! ! ! ! ",
", , , < 1 2 : : : G V ) 1 1 1 h _ , , , , P ( : : : : : : : : > 8 V V V V 9 9.: : : : : : : w 1 Z , , , A 1 1 1 1 1 Z , , , , , ",
"L L L { $.0.6.6.6.q.w.w.1 h Q e...X.X.X.X.X.f : : : : > r.6.6.6.t.w.w.w.w.w.y.6.6.u.i.: : : +.` | L L L 2. . . . . .^ L L L L L ",
"1 1 1 2 : G V V V ) 1 1 1 h _ P ( : : : : : : : : : : > 8 V V 9 C 1 1 1 1 n p.V V 9 a.: : : : : w 1 1 1 Z , , , , , A 1 1 1 1 1 ",
"1 @.$.0.6.q.w.w.w.w.1 1 1 h _ P ( : w s.+.: : U r.6.6.6.t.w.w.w.W 1 d.$.$.` f.w.w.w.g.u.i.: : : +.$.$.$.| L L L L L } $.$.$.$.$.",
"1 2 : G V ) 1 1 1 1 1 1 1 h _ P ( : j 2 5 : : G 8 V V 9 C 1 1 1 1 1 5 : : : j 1 1 n h.9 a.: : : : : : : w 1 1 1 1 1 q : : : : : ",
"$.d : G V ) 1 1 1 1 1 h  .e...X.f : j 2 5 U r.q.t.w.w.w.W 1 d.$.$.$.> : : : 5 $.j.n h.9 a.: :.&.;.: : : +.$.$.$.$.$.f : : : : : ",
": : : G V ) 1 1 1 1 1 h , P ( : : : j 2 5 G 8 ) C 1 1 1 1 1 5 : : : : : : : : : w n h.9 a.: w 1 q : : : : : : : : : : : : : : : ",
"&.s.: G V ) 1 @.$.` 1 h , P ( : : : 5 d > G 8 ) C 1 d.$.$.$.> : k.' ' ' ' ' <.: w n h.9 a.: +.$.f : : : : : : : : : :.&.&.&.;.: ",
"1 2 : G V ) 1 2 : : 1 h , P ( : : : : : : G 8 ) C 1 5 : : : : 6 3 , , , , < ( : w n h.9 a.: : : : : : : : : : : : : w 1 1 1 q : ",
"$.d : G V ) 1 2 : : 1 h , P ( : : : : U r.q.t.w.W 1 5 : : : k.' l.L L L L z.x.' c.` v.w.g.6.6.6.6.6.6.6.6.6.i.: : : +.$.$.$.f : ",
": : : G V ) 1 2 : : 1 h , P ( : : : : G 8 ) C 1 1 1 5 : : 6 3 7 4 1 1 1 1 1 _ < J : w n h.V V V V V V V V V a.: : : : : : : : : ",
": : : G V ) 1 1 &.&.1 h , P ( : : : : G 8 ) C @.d.$.> : : : b.L n.$.$.$.$.` m.< J : +.` v.w.w.w.w.w.w.w.w.w.g.6.i.: :.&.;.: : : ",
": : : G V ) 1 1 1 1 1 h , P ( : : : : G 8 ) C 2 5 : : : : : j 1 5 : : : : 6 3 < J : : : w 1 1 1 1 1 1 1 1 1 h.V a.: w 1 q : : : ",
": : : G V ) 1 1 1 1 1 h , P ( : w s.+.G 8 ) C 1 >.&.+.: k.' M.1 5 : w &.+.6 3 < J : : : +.$.$.$.$.$.$.$.j.1 h.V a.: +.$.f : : : ",
": : : G V ) 1 1 1 1 1 h , P ( : j 2 5 G 8 ) C 1 1 1 5 6 3 7 4 1 5 : j 1 5 6 3 < J : : : : : : : : : : : w 1 h.V a.: : : : : : : ",
"N.N.N.N.B.V.1 1 2.2.2.2.C.Z.A.: S.D f G 8 ) C 1 D.D f 6 3 7 4 1 5 : j 1 5 : F.G.H.J.J.K.] : : : : : : : ` 4.L.B.P.N.N.N.N.N.N.N.",
"V V V ) 1 1 1 h , , , P : : : : : : : G 8 ) C 2 5 : : 6 3 7 4 1 5 : j 1 5 : j 1 Z , , < J : : : : : : : : : w 1 h.V V V V V V V ",
"B.B.B.V.1 1 2.2.C.C.C.Z.: : : : :.5.I.G 8 ) C 2 5 : : 6 3 7 4 1 5 : j 1 5 : S.U.Y.G.G.G.H.J.J.J.J.J.J.J.] : ` 4.L.B.B.B.B.B.B.B.",
"1 1 1 1 1 h , P : : : : : : : : j 2 5 G 8 ) C 2 5 : : 6 3 7 4 1 5 : j 1 5 : : : w 1 1 1 Z , , , , , , , J : : : w 1 1 1 1 1 1 1 ",
"2.2.1 1 1 h , P : : 5.5.: : : : S.D f G 8 ) C 2 5 : T.J.R.^ } D f : S.D f : : : ` 4.4.U.Y.G.G.G.G.G.G.G.H.J.] : w 1 1 1 1 1 1 1 ",
", < 1 1 1 h , P : : 1 2 : : : : : : : G 8 ) C 2 5 6 3 7 4 1 5 : : : : : : : : : : : : : w 1 1 1 1 1 1 1 Z , J : w 1 1 1 1 1 1 1 ",
"G.^ 1 1 1 h , P : : 4.D : > E.N.N.N.N.N.W.Q.!.~.^.6 3 7 4 1 5 : : : :.5.5.5.5.5.5.5.5.F /.2.2.2.2.2.2.2.(.C.).5._.1 1 1 1 1 1 1 ",
"1 1 1 1 1 h , P : : : : : G 8 V V V V ) C h _ P ( 6 3 7 4 1 5 : : : j 1 1 1 1 1 1 1 1 1 Z , , , , , , , J : w 1 1 1 1 1 1 1 1 1 ",
"2.2.2.2.2.2.C.Z.: : : > N.N.W.B.B.B.B.`.'.U.].Z.A.6 3 7 4 1 5 : :.F R.2.2.2.2.2.2.2.2.2.(.C.C.C.C.C.C.C.).5._.1 1 1 A 2.2.2.2.2.",
", , , , , P : : : : : G V ) C 1 1 1 1 2 5 : : : : 6 3 7 4 1 5 : j 1 _ , , , , , , , , < J : : : : : : : w 1 1 1 1 1 Z , , , , , ",
"C.C.C.C.C.Z.: : : : : G V ) C 1 D.4.4.U.[.J.J.J.J.J.R.^ } D f : {.2.}.C.C.C.C.C.C.C.C.|.).5.5.5.5.5.5.5./.2.2.2.2.2. X, .XC.C.C.",
": : : : : : : : : : : G V ) C 2 5 : : > 3 , , , , 7 4 1 5 : : 6 3 < ( : : : : : : : : : w 1 1 1 1 1 1 1 Z , , , , , , , J : : : ",
": : : : : > XXXXXXXXXXXXB.V.'.D f 6 oXOXR.+X+X+X+XG.@X4.f : : 6 3 < ( : : : oXOXOXOXOXOX#X2.2.2.2.2.2.2.(.C.C.C.C.C.C.C.$X: : : ",
": : : : : G V V V V V ) 1 2 5 : : > 3 < 4 1 1 1 1 1 5 : : : : 6 3 < ( : : 6 3 , , , , , , , , , , , , , J : : : : : : : : : : : ",
"XXXXXXXXXXXXB.B.B.B.B.V.U.D f : : > 3 < 4 1 D.U.U.U.%XOXOXOXOXOXR.G.&X: oXOXR.+X+X+X+XG.*XC.C.C.C.C.C.C.$X: : : =XXXXXXXXXXXXXXX",
"V V V V V ) 1 1 1 1 1 2 : : : : : > 3 < 4 2 5 : : 6 3 , , , , 7 4 1 5 6 3 7 4 1 1 1 1 1 q : : : : : : : : : : : -XV V V V V V V ",
"B.B.B.B.B.V.U.U.U.U.U.D : 6 oXOXOXOXR.^ @XD f 6 oXOXR.+X+X+X+XG.@X4.f 6 3 7 4 1 u U.U.U.;XXXXXXXXXXXXXXXXXXXXXXX:XB.B.B.B.B.B.B.",
"1 1 1 1 1 2 : : : : : : : > 3 , , < 4 2 5 : : > 3 7 4 1 1 1 1 1 5 : : 6 3 7 4 1 q : : > -XV V V V V V V V V V V 0 1 1 1 1 1 1 1 ",
"U.U.U.U.U.D : 6 OXOXOXOXOXOXR.+X+X^ @XD f : : > 3 7 4 1 D.U.>X2.a OXOXOX,XC.<XU.;XXXXXXX:XB.B.B.B.B.B.B.B.B.B.B.1X1 u U.U.U.U.U.",
": : : : : : : > , , , , , < 4 1 1 2 5 : : : : > 3 7 4 1 5 6 3 , , , , < ( : : > -XV V 9 0 1 1 1 1 1 1 1 1 1 1 1 1 1 q : : : : : ",
": : : : : 6 OXOX+X+X+X+X+X^ @XU.U.U.%XOXOXOXOXOXR.G.@XU.%XOXR.+X+XG.2XC.3X: 4XXX:XB.B.B.1X1 u U.5X1 1 1 1 1 u U.U.U.+.: q 5.d : ",
": : : : : > , < 1 1 1 1 1 2 5 : : > 3 , , , , < 4 1 5 6 3 7 4 1 1 1 5 : : > 8 9 0 1 1 1 1 1 q : w 1 1 1 1 1 q : : : : : w 1 q : ",
": : : : : > , < U.U.U.U.U.D f 6 oXOXR.+X+X+X+X^ @X4.f 6 3 < 6XU.U.4.f : : > 8 9 0 1 1 1 u 4.+.: ` U.5X1 1 1 j.5.d : : : ` U.+.: ",
": : : : : > , P : : : : : : : > 3 < 4 1 1 1 1 2 5 : : 6 3 < ( : : : : : : > 8 9 0 1 1 1 q : : : : : w 1 1 1 1 1 q : : : : : : : "
};
