/* XPM */
static char *_44089e422b748a9da90b3410c3c6ca8iQJFvh1RMVbVqZQz[] = {
/* columns rows colors chars-per-pixel */
"70 64 199 2 ",
"   c None",
".  c #010102",
"X  c #0A0403",
"o  c #060A06",
"O  c #0C0A06",
"+  c #02020A",
"@  c #060A0C",
"#  c #0C0C0A",
"$  c #140E0B",
"%  c #1A0E0C",
"&  c #0E140D",
"*  c #12150D",
"=  c #10180E",
"-  c #070811",
";  c #0D0F11",
":  c #151515",
">  c #1A1615",
",  c #1C1D15",
"<  c #1A1A1A",
"1  c #191719",
"2  c #251913",
"3  c #2C1C15",
"4  c #2F1E19",
"5  c #231F1D",
"6  c #301D18",
"7  c #1B2414",
"8  c #1D2718",
"9  c #2D2119",
"0  c #222D1B",
"q  c #272D1A",
"w  c #33241E",
"e  c #253415",
"r  c #2A3B16",
"t  c #263518",
"y  c #29351C",
"u  c #2B3E1B",
"i  c #283715",
"p  c #3C351E",
"a  c #383D1D",
"s  c #242424",
"d  c #2D2D2D",
"f  c #2C2620",
"g  c #362C26",
"h  c #302E2E",
"j  c #322521",
"k  c #2C3B22",
"l  c #283420",
"z  c #323F22",
"x  c #3D322B",
"c  c #313F28",
"v  c #2F2F32",
"b  c #2D3236",
"n  c #343434",
"m  c #33393D",
"M  c #3D3C3C",
"N  c #303539",
"B  c #412C1F",
"V  c #412C20",
"C  c #4B3425",
"Z  c #4D362A",
"A  c #473227",
"S  c #533523",
"D  c #5C3A24",
"F  c #513C2E",
"G  c #593A2A",
"H  c #573927",
"J  c #603E28",
"K  c #613922",
"L  c #2D421A",
"P  c #32461E",
"I  c #344B1E",
"U  c #2F4122",
"Y  c #334623",
"T  c #354C21",
"R  c #3C4E27",
"E  c #3D4E2A",
"W  c #3C5324",
"Q  c #3E5926",
"!  c #3E5829",
"~  c #3B5029",
"^  c #3E5730",
"/  c #4D4B26",
"(  c #5C4728",
")  c #415A26",
"_  c #41572A",
"`  c #435C2B",
"'  c #47403C",
"]  c #5F4331",
"[  c #63402A",
"{  c #6D462B",
"}  c #6A482D",
"|  c #644026",
" . c #714626",
".. c #704628",
"X. c #665027",
"o. c #694A33",
"O. c #6D4B38",
"+. c #714D35",
"@. c #704F3B",
"#. c #6B543F",
"$. c #44622A",
"%. c #4C6A2E",
"&. c #48672D",
"*. c #4C6A31",
"=. c #4D6634",
"-. c #373E42",
";. c #263D5C",
":. c #29404C",
">. c #3C4246",
",. c #294057",
"<. c #2E4C5D",
"1. c #2A4361",
"2. c #2D4A64",
"3. c #2D4669",
"4. c #244D6F",
"5. c #274466",
"6. c #33556C",
"7. c #35596D",
"8. c #305266",
"9. c #254D73",
"0. c #304E70",
"q. c #2B577B",
"w. c #325373",
"e. c #434343",
"r. c #4C4C4C",
"t. c #474946",
"y. c #514C47",
"u. c #5B4D45",
"i. c #545353",
"p. c #5C5753",
"a. c #5A5A5A",
"s. c #5A5957",
"d. c #684F43",
"f. c #635146",
"g. c #6C5341",
"h. c #6F5947",
"j. c #6E594B",
"k. c #64544B",
"l. c #70584C",
"z. c #6A5E56",
"x. c #635E5C",
"c. c #6F6158",
"v. c #6B6057",
"b. c #7A6353",
"n. c #666666",
"m. c #696564",
"M. c #656669",
"N. c #676869",
"B. c #6B6B6B",
"V. c #766E66",
"C. c #7C6C62",
"Z. c #736E6B",
"A. c #7A6F6A",
"S. c #74726D",
"D. c #79736D",
"F. c #737273",
"G. c #7D7975",
"H. c #777778",
"J. c #7D7D7D",
"K. c #787776",
"L. c #817164",
"P. c #88786C",
"I. c #80756B",
"U. c #857B74",
"Y. c #8A7E74",
"T. c #817E7D",
"R. c #807C79",
"E. c #82817F",
"W. c #8A847E",
"Q. c #2B5984",
"!. c #2C5A88",
"~. c #7E7F80",
"^. c #7F8081",
"/. c #808080",
"(. c #828282",
"). c #838182",
"_. c #858585",
"`. c #858587",
"'. c #838181",
"]. c #8A8481",
"[. c #898989",
"{. c #8B8B8B",
"}. c #8A8A89",
"|. c #8E8C89",
" X c gray55",
".X c #8D8D8D",
"XX c #8F8F8F",
"oX c #8B8C8C",
"OX c #898988",
"+X c #928C84",
"@X c #8E8E90",
"#X c #929292",
"$X c gray57",
"%X c #959595",
"&X c #949292",
"*X c gray60",
"=X c #999899",
"-X c #9A9A9A",
";X c #9A9997",
/* pixels */
"                                                                                                                                            ",
"                                                                                                                                            ",
"                                                                                                                                            ",
"                                                                  . . . .                                                                   ",
"                                                                  . . . .                                                                   ",
"                                                                  . . M M s                                                                 ",
"                                                                  . . -X-XM . .                                                             ",
"                                                                  # # -X-Xt.: :                                                             ",
"                                                        . . . . n n.n.-X-X/.F.n.& . . . . . .                                               ",
"                                                        . . . . n J.~.-X=X#XoXJ.# . . . . . .                                               ",
"                                                      : : : : : e.'.'.-X-X#X.X^.s < < < < # O O                                             ",
"                                                  . . n F.F.F.F.J..XoX-X=X#X.X[.'.J.J.J.T.x x > + .                                         ",
"                                                  . . n F.F.F.F.J.oX.X=X=X#X.XoXJ.^.J.^.E.x x > X X                                         ",
"                                              . . i.i.a.B.B.J.J.'.oX.X-X=X#X.XoX'.J.H.K.F.m.m.' f f # .                                     ",
"                                              . . n.n.n.n.N.J.E.(. X X-X=X#X.XoX^.J.H.F.S.F.F.y.A g # .                                     ",
"                                              . . n.n.B.N.B.J.J.`. X X-X=X#X.XoXJ.'.H.F.F.F.S.y.x g O .                                     ",
"                                              . . n.n.B.F.F.J.^.(..X.X=X-X#XoXoX~.~.H.F.F.F.S.r.x g # +                                     ",
"                                              . . n.n.B.F.F.J.J.(..X.X=X-X#X XoX~.~.H.F.F.F.F.y.x g O .                                     ",
"                                        o . n F.F.n.n.B.F.F.~.J.^.(.'.=X-X}.'.'.~.J.H.F.F.F.F.~.].W.R.J.M . .                               ",
"                                        . . M  X.Xn.n.N.F.F.~.J.^.^.~.=X=X}.J.~.^.^.H.F.Z.F.F.[.=X-X;X-XM . .                               ",
"                                        . . n K.H.F.H.J.(.(.[.[._.'.J.-X-X[.~.~.[.}._.'.^.^.(.(.`.`.[.[.m . .                               ",
"                                        . . s s.a..XoXXX-X=X=X=XXXJ.J.-X-X}.J.'.%X-X-X-X=X=X-XJ.n.n.Z.F.d . +                               ",
"                                        . . s s.a..X.XXX=X-X=X=X#XJ.^.-X-X}.~.'.%X-X=X-X=X=X-XH.n.M.Z.F.d . .                               ",
"                                        . . s a.i.n.n.n.F.F.F.Z.J.%X#X_._. X%X#XF.F.B.F.F.Z.F.F.F.Z.F.F.F.Z.Z.< .                           ",
"                                        . . s s.a.s.a.a.n.n.n.n.J.*X-XE.^.#X-X#XB.m.m.M.M.M.m.B.F.F.F.F.(. X X< . .                         ",
"                                        . . d B.B.u.u.f.k.f.e.M p.P.P.]._.U.P.L.t.M u.j.j.j.l.Z.J.H.F.F.n.i.i.: . .                         ",
"                                        . . M  X+XG H D D S X . 3 } } |.oXb.{ [ O . V ..} { { L.oX}.K.F.d . . . . .                         ",
"                                        . . M  X+XG D H D S O . 3 { } |..Xb...[ O + V ..{ { { L.|.}.K.S.d . . . . .                         ",
"                                            < < 9 R.R.U.U.G.s.i.s.z.z.oX.XA.z.z.i.i.V.Y.Y.U.Y.U.H.D.h.@.9 . .                               ",
"                                              . . .X@X@X|.OXB.M.M.M.m.oX|.K.n.m.n.n.H.oX.X@XoXJ.F.Z.@.{ 3 . .                               ",
"                                              . . (.(.(.'.'.H.K.F.n.n.J.~.Z.n.M.F.K.J.'.'.'.E.V.c.z.Z B 2 . .                               ",
"                                              . . F.F.F.F.F.OX|.J.n.M.n.M.m.m.B.OXoXJ.F.F.F.S.h. .[ % .                                     ",
"                                              . . S.F.F.F.H.[..XJ.m.m.m.n.m.n.B.`.@XJ.F.F.S.S.l.{ [ % .                                     ",
"                                              . . f.d.v.F.F.[.oXL.#.g.g.g.g.#.l.].|.J.F.Z.h.h.+...[ % .                                     ",
"                                              . X H K f.F.F.[.oXL... ... .{  .+.].|.G.F.A.} {  ...| % .                                     ",
"                                              . X C V u.F.H.[..XC.{ { { { { { O.W.|.J.F.S.o. .D G Z , & $                                   ",
"                                              . + . . n F.K.[..XC.D K K D K D J Y.@X~.F.S.{ ..6 . O Y ! 7 . .                               ",
"                                              . . . . h F.K.[.oXC.D D D D D G J ]..X~.F.S.o.} 9 . # Y ) 7 . .                               ",
"                                                  + . > d n ^..Xx.2 3 2 2 2 3 w ^.oXi.h h 6 9 q k k ~ ! 7 . .                               ",
"                                                  . . . + ; ~.@Xi.. . . . . . ; T.oXM . . . + y _ ! Q Q 7 . .                               ",
"                                                  + . o & , m.F.t.O O $ $ O O : n.F.d . + = = l Y T W _ 7 . .                               ",
"                                  . . . . . .     . . 8 _ E & + : t i H H p t q o . . . . =.*.0 o o Y Q 7 . .                               ",
"                                  . . . . . .     . + 8 Q T # . * e e D D a e e . . . + + %.%.8 . # Y Q 7 . .                               ",
"                              . . s ' >.r.r.M . : y y t 7 8 l y y e i / / a e t y y k Y Y 0 8 k P c 0 7 =                                   ",
"                              . . M M.B.J.J.r.. . _ Q y . o E Q I i e Q Q L t r _ ) $.%.%.. . z =.&.: +                                     ",
"                              . . e.B.B.H.J.r.. . ) Q y . # ~ ! I L L ) ` T L L Q ) &.*.%.. + z %.` & .                                     ",
"                              . . r.J.J.B.m.M . . _ ! y . o E Q $.%.%.%.%.*.*.*.*.*.%.%.%.. . U *.$.= .                                     ",
"                              . . r.E.H.B.n.M . . ^ Q y . # T ! $.%.%.%.%.%.%.%.%.%.%.%.%.. . Y *.$.* .                                     ",
"                                  : < < : 1 j H F * & O . # t u L L L T I I T T I I $.%.%.. . p X.( * +                                     ",
"                                  . . . . . 6 ..o.X + . . + e t e t t L I I I U I P ) %.%.. . B ..| % +                                     ",
"                                    . . . . 2 H F 1 : # . . q t i r L I I I I T I P ) $.*.. . w G C % .                                     ",
"                                        . . + . + M.M.F . + e t P Q Q Q Q Q ! ! I P W Q _ . . . . X                                         ",
"                                        . . . . + M.m.M + . t t L ! ! ! ! ! ! ! I Y ~ ! ! + . . . .                                         ",
"                                                  : < : . # :.,.<.<.2.7.w.8.2.<.8.6.6.7.7.+ . #                                             ",
"                                                  . . . . - 5.9.4.9.4.Q.!.q.9.9.Q.Q.Q.!.q.. .                                               ",
"                                                  . o . . @ ,.<.2.2.3.2.5.5.;.,.0.w.w.w.w.+ .                                               ",
"                                                        . o b N m >.>.@ - @ @ ; b m -.>.>.. .                                               ",
"                                                        . . d n m F M . . . . . d n M M M . .                                               ",
"                                                        . . : : : < <           : : < < < . .                                               ",
"                                                        . . . . + . .           . . . . . . .                                               ",
"                                                        . . . . . . .           . . . . . . +                                               ",
"                                                                                                                                            ",
"                                                                                                                                            ",
"                                                                                                                                            "
};
