/* XPM */
static char *a8f70beced0b4da2f1d78d7ef3f8348exeNlWJJCTdVDmpwG[] = {
/* columns rows colors chars-per-pixel */
"64 64 146 2 ",
"   c #C28469",
".  c #BA8875",
"X  c #9198AC",
"o  c #9298AA",
"O  c #BB8773",
"+  c #BE866F",
"@  c #9895A2",
"#  c #8E99AF",
"$  c #B48A7C",
"%  c #C16C52",
"&  c #C17055",
"*  c #8E93A7",
"=  c #9F6E63",
"-  c #A76856",
";  c #BD6C52",
":  c #C16E54",
">  c #C27E63",
",  c #8C97AE",
"<  c #9C756E",
"1  c #A26857",
"2  c #B96B53",
"3  c #BF482F",
"4  c #C05138",
"5  c #878DA3",
"6  c #76494A",
"7  c #7F3F39",
"8  c #B64731",
"9  c #BF4D33",
"0  c #C2755B",
"q  c #8894AC",
"w  c #79555A",
"e  c #733D3B",
"r  c #AC4632",
"t  c #A14434",
"y  c #A64D3C",
"u  c #7A3E3A",
"i  c #9B4335",
"p  c #A34938",
"a  c #BA745C",
"s  c #954236",
"d  c #7F4842",
"f  c #79423F",
"g  c #AE725E",
"h  c #694F59",
"j  c #70555D",
"k  c #987974",
"l  c #967E7E",
"z  c #8C97AD",
"x  c #8590A7",
"c  c #6D5864",
"v  c #6D525B",
"b  c #8D6F6D",
"n  c #977C79",
"m  c #8E93A5",
"M  c #8895AE",
"N  c #716270",
"B  c #5A6985",
"V  c #61718C",
"C  c #8495AF",
"Z  c #8394AE",
"A  c #606F8B",
"S  c #5E6D89",
"D  c #7E8FA9",
"F  c #8697B1",
"G  c #667691",
"H  c #84747A",
"J  c #88787E",
"K  c #9D8E93",
"L  c #9C8D92",
"P  c #87787D",
"I  c #80757E",
"U  c #707C94",
"Y  c #6F7C96",
"T  c #81757E",
"R  c #86767C",
"E  c #998A8F",
"W  c #9E9094",
"Q  c #8B7B81",
"!  c #737B91",
"~  c #6D7D98",
"^  c #7E7681",
"/  c #8A9BB5",
"(  c #C28166",
")  c #A56856",
"_  c #C27D62",
"`  c #793E3A",
"'  c #B04631",
"]  c #B34F3A",
"[  c #C07C62",
"{  c #783E3A",
"}  c #A84533",
"|  c #BE755B",
" . c #B87B63",
".. c #6E464A",
"X. c #784E50",
"o. c #A5786A",
"O. c #A88379",
"+. c #8E98AC",
"@. c #8895AD",
"#. c #725157",
"$. c #9E7166",
"%. c #AD7F6F",
"&. c #9394A4",
"*. c #755B65",
"=. c #6F6E7F",
"-. c #6D6F82",
";. c #64738F",
":. c #65728C",
">. c #757485",
",. c #9091A1",
"<. c #9294A3",
"1. c #747484",
"2. c #6E6F81",
"3. c #65728D",
"4. c #64738D",
"5. c #6D6F81",
"6. c #8C8C9C",
"7. c #9596A6",
"8. c #787989",
"9. c #C1785D",
"0. c #C27A5F",
"q. c #9096A8",
"w. c #B27660",
"e. c #B5765F",
"r. c #C1795E",
"t. c #C28368",
"y. c #8D98AF",
"u. c #AD7B6B",
"i. c #B37660",
"p. c #BE785E",
"a. c #7C3F3A",
"s. c #B04935",
"d. c #B2705A",
"f. c #AF7966",
"g. c #8F96AA",
"h. c #754444",
"j. c #878FA6",
"k. c #868EA5",
"l. c #704C52",
"z. c #8790A8",
"x. c #8F91A0",
"c. c #727182",
"v. c #66728B",
"b. c #6C7083",
"n. c #C0785E",
"m. c #A87F75",
/* pixels */
"                          . X o O                                                             + @ # $                           ",
"% % % % % % % % % % % &   . X * = - ; % % % % % % % % % % % % % % % % % % % % % % % % % % : > + @ , < 1 2 % % % % % % % % % % % ",
"3 3 3 3 3 3 3 3 3 3 3 4   . X 5 6 7 8 3 3 3 3 3 3 3 3 3 3 3 3 3 3 3 3 3 3 3 3 3 3 3 3 3 3 9 0 + @ q w e r 3 3 3 3 3 3 3 3 3 3 3 ",
"3 3 3 3 3 3 3 3 3 3 3 4   . X 5 6 7 8 3 3 3 3 3 3 3 3 3 3 3 3 3 3 3 3 3 3 3 3 3 3 3 3 3 3 9 0 + @ q w e r 3 3 3 3 3 3 3 3 3 3 3 ",
"3 3 3 3 3 3 3 3 3 3 3 4   . X 5 6 7 8 3 3 3 3 3 3 3 3 3 3 3 3 3 3 3 3 3 3 3 3 3 3 3 3 3 3 9 0 + @ q w e r 3 3 3 3 3 3 3 3 3 3 3 ",
"3 3 3 3 3 3 3 3 3 3 3 4   . X 5 6 7 8 3 3 3 3 3 3 3 3 3 3 3 3 3 3 3 3 3 3 3 3 3 3 3 3 3 3 9 0 + @ q w e r 3 3 3 3 3 3 3 3 3 3 3 ",
"3 3 3 3 3 3 3 3 3 3 3 4   . X 5 6 7 8 3 3 3 3 3 3 3 3 3 3 3 3 3 3 3 3 3 3 3 3 3 3 3 3 3 3 9 0 + @ q w e r 3 3 3 3 3 3 3 3 3 3 3 ",
"3 3 3 3 3 3 3 3 3 3 3 4   . X 5 6 7 8 3 3 3 3 3 3 3 3 3 3 3 3 3 3 3 3 3 3 3 3 3 3 3 3 3 3 9 0 + @ q w e r 3 3 3 3 3 3 3 3 3 3 3 ",
"3 3 3 3 3 3 3 3 3 3 3 4   . X 5 6 7 8 3 3 3 3 3 3 3 3 3 3 3 3 3 3 3 3 3 3 3 3 3 3 3 3 3 3 9 0 + @ q w e r 3 3 3 3 3 3 3 3 3 3 3 ",
"3 3 3 3 3 3 3 3 3 3 3 4   . X 5 6 7 8 3 3 3 3 3 3 3 3 3 3 3 3 3 3 3 3 3 3 3 3 3 3 3 3 3 3 9 0 + @ q w e r 3 3 3 3 3 3 3 3 3 3 3 ",
"3 3 3 3 3 3 3 3 3 3 3 4   . X 5 6 7 8 3 3 3 3 3 3 3 3 3 3 3 3 3 3 3 3 3 3 3 3 3 3 3 3 3 3 9 0 + @ q w e r 3 3 3 3 3 3 3 3 3 3 3 ",
"t t t t t t t t t t t y   . X 5 6 u i t t t t t t t t t t t t t t t t t t t t t t t t t t p a + @ q w e s t t t t t t t t t t t ",
"e e e e e e e e e e e d   . X 5 6 e e e e e e e e e e e e e e e e e e e e e e e e e e e e f g + @ q w e e e e e e e e e e e e e ",
"h h h h h h h h h h h j k l z x c h h h h h h h h h h h h h h h h h h h h h h h h h h h h v b n m M N h h h h h h h h h h h h h ",
"B B B B B B B B B B B B B V C Z A B B B B B B B B B B B B B B B B B B B B B B B B B B B B B B S D F G B B B B B B B B B B B B B ",
"H H H H H H H H H H H H H J K L P H H H H H H I U Y T H H H H H H H H H H H H H H H H H H H H R E W Q H H H H H ! ~ ^ H H H H H ",
"                                              . X # O                                                           @ / $           ",
"% % % % % % % % % % % % % % % % % % % % % & ( . X , = ) ; % % % % % % % % % % % % % % % % % % % % % % % % % >   @ / < 1 2 % % % ",
"3 3 3 3 3 3 3 3 3 3 3 3 3 3 3 3 3 3 3 3 3 4 _ . X q 6 ` 8 3 3 3 3 3 3 3 3 3 3 3 3 3 3 3 3 3 3 3 3 3 3 3 3 3 0   @ / w e r 3 3 3 ",
"3 3 3 3 3 3 3 3 3 3 3 3 3 3 3 3 3 3 3 3 3 4 _ . X q 6 ` 8 3 3 3 3 3 3 3 3 3 3 3 3 3 3 3 3 3 3 3 3 3 3 3 3 3 0   @ / w e r 3 3 3 ",
"3 3 3 3 3 3 3 3 3 3 3 3 3 3 3 3 3 3 3 3 3 4 _ . X q 6 ` 8 3 3 3 3 3 3 3 3 3 3 3 3 3 3 3 3 3 3 3 3 3 3 3 3 3 0   @ / w e r 3 3 3 ",
"3 3 3 3 3 3 3 3 3 3 3 3 3 3 3 3 3 3 3 3 3 4 _ . X q 6 ` 8 3 3 3 3 3 3 3 3 3 3 3 3 3 3 3 3 3 3 3 3 3 3 3 3 3 0   @ / w e r 3 3 3 ",
"3 3 3 3 3 3 3 3 3 3 3 3 3 3 3 3 3 3 3 3 3 4 _ . X q 6 ` 8 3 3 3 3 3 3 3 3 3 3 3 3 3 3 3 3 3 3 3 3 3 3 3 3 3 0   @ / w e r 3 3 3 ",
"3 3 3 3 3 3 3 3 3 3 3 3 3 3 3 3 3 3 3 3 3 4 _ . X q 6 ` 8 3 3 3 3 3 3 3 3 3 3 3 3 3 3 3 3 3 3 3 3 3 3 3 3 3 0   @ / w e r 3 3 3 ",
"3 3 3 3 3 3 3 3 3 3 3 3 3 3 3 3 3 3 3 3 3 4 _ . X q 6 ` 8 3 3 3 3 3 3 3 3 3 3 3 3 3 3 3 3 3 3 3 3 3 3 3 3 3 0   @ / w e r 3 3 3 ",
"3 3 3 3 3 3 3 3 3 3 3 3 3 3 3 3 3 3 3 3 3 4 _ . X q 6 ` 8 3 3 3 3 3 3 3 3 3 3 3 3 3 3 3 3 3 3 3 3 3 3 3 3 3 0   @ / w e r 3 3 3 ",
"3 3 3 3 3 3 3 3 3 3 3 3 3 3 3 3 3 3 3 3 3 4 _ . X q 6 ` 8 3 3 3 3 3 3 3 3 3 3 3 3 3 3 3 3 3 3 3 3 3 3 3 3 3 0   @ / w e r 3 3 3 ",
"' ' ' ' ' ' ' ' ' ' ' ' ' ' ' ' ' ' ' ' ' ] [ . X q 6 { } ' ' ' ' ' ' ' ' ' ' ' ' ' ' ' ' ' ' ' ' ' ' ' ' ' |   @ / w e t ' ' ' ",
"e e e e e e e e e e e e e e e e e e e e e d  .. X q 6 e e e e e e e e e e e e e e e e e e e e e e e e e e e g   @ / w e e e e e ",
"..........................................X.o.O.+.@.#.......................................................$.%.&./ *...........",
"B B B B B B B B B B B B B B B B B B B B B B B V C F A B B B B B B B B B B B B B B B B B B B B B B B B B B B B B D / G B B B B B ",
"=.=.=.-.;.:.=.=.=.=.=.=.=.=.=.=.=.=.=.=.=.=.=.>.,.<.1.=.=.=.=.=.=.=.=.2.3.4.5.=.=.=.=.=.=.=.=.=.=.=.=.=.=.=.=.=.6.7.8.=.=.=.=.=.",
"      . / o                                                           + X # O                                                   ",
"9.0.  . / q.w.e.9.9.9.9.9.9.9.9.9.9.9.9.9.9.9.9.9.9.9.9.9.9.9.9.9.r.t.+ X y.u.i.p.9.9.9.9.9.9.9.9.9.9.9.9.9.9.9.9.9.9.9.9.9.9.9.",
"3 4   . / 5 e 7 3 3 3 3 3 3 3 3 3 3 3 3 3 3 3 3 3 3 3 3 3 3 3 3 3 9 _ + X q 6 ` r 3 3 3 3 3 3 3 3 3 3 3 3 3 3 3 3 3 3 3 3 3 3 3 ",
"3 4   . / 5 e 7 3 3 3 3 3 3 3 3 3 3 3 3 3 3 3 3 3 3 3 3 3 3 3 3 3 9 _ + X q 6 ` r 3 3 3 3 3 3 3 3 3 3 3 3 3 3 3 3 3 3 3 3 3 3 3 ",
"3 4   . / 5 e 7 3 3 3 3 3 3 3 3 3 3 3 3 3 3 3 3 3 3 3 3 3 3 3 3 3 9 _ + X q 6 ` r 3 3 3 3 3 3 3 3 3 3 3 3 3 3 3 3 3 3 3 3 3 3 3 ",
"3 4   . / 5 e 7 3 3 3 3 3 3 3 3 3 3 3 3 3 3 3 3 3 3 3 3 3 3 3 3 3 9 _ + X q 6 ` r 3 3 3 3 3 3 3 3 3 3 3 3 3 3 3 3 3 3 3 3 3 3 3 ",
"3 4   . / 5 e 7 3 3 3 3 3 3 3 3 3 3 3 3 3 3 3 3 3 3 3 3 3 3 3 3 3 9 _ + X q 6 ` r 3 3 3 3 3 3 3 3 3 3 3 3 3 3 3 3 3 3 3 3 3 3 3 ",
"3 4   . / 5 e 7 3 3 3 3 3 3 3 3 3 3 3 3 3 3 3 3 3 3 3 3 3 3 3 3 3 9 _ + X q 6 ` r 3 3 3 3 3 3 3 3 3 3 3 3 3 3 3 3 3 3 3 3 3 3 3 ",
"3 4   . / 5 e 7 3 3 3 3 3 3 3 3 3 3 3 3 3 3 3 3 3 3 3 3 3 3 3 3 3 9 _ + X q 6 ` r 3 3 3 3 3 3 3 3 3 3 3 3 3 3 3 3 3 3 3 3 3 3 3 ",
"3 4   . / 5 e 7 3 3 3 3 3 3 3 3 3 3 3 3 3 3 3 3 3 3 3 3 3 3 3 3 3 9 _ + X q 6 ` r 3 3 3 3 3 3 3 3 3 3 3 3 3 3 3 3 3 3 3 3 3 3 3 ",
"3 4   . / 5 e 7 3 3 3 3 3 3 3 3 3 3 3 3 3 3 3 3 3 3 3 3 3 3 3 3 3 9 _ + X q 6 ` r 3 3 3 3 3 3 3 3 3 3 3 3 3 3 3 3 3 3 3 3 3 3 3 ",
"' ]   . / 5 e a.' ' ' ' ' ' ' ' ' ' ' ' ' ' ' ' ' ' ' ' ' ' ' ' ' s.d.f.g.q 6 { t ' ' ' ' ' ' ' ' ' ' ' ' ' ' ' ' ' ' ' ' ' ' ' ",
"e d   . / 5 e e e e e e e e e e e e e e e e e e e e e e e e e e e e e h.j.q 6 e e e e e e e e e e e e e e e e e e e e e e e e e ",
"..X.%.O./ k...........................................................l.z.@.#...................................................",
"B B B V / Z B B B B B B B B B B B B B B B B B B B B B B B B B B B B B S C F A B B B B B B B B B B B B B B B B B B B B B B B B B ",
"=.=.=.>.7.x.=.=.=.=.=.=.=.=.=.=.=.=.=.-.3.:.5.=.=.=.=.=.=.=.=.=.=.=.=.c.,.<.1.=.=.=.=.=.=.=.=.=.=.=.=.=.v.;.b.=.=.=.=.=.=.=.=.=.",
"                                      . X o O                                                           @ / $                   ",
"9.9.9.9.9.9.9.9.9.9.9.9.9.9.9.9.9.0.t.. X q.u.e.n.9.9.9.9.9.9.9.9.9.9.9.9.9.9.9.9.9.9.9.9.9.9.9.9.r.(   @ / m.w.p.9.9.9.9.9.9.9.",
"3 3 3 3 3 3 3 3 3 3 3 3 3 3 3 3 3 4 _ . X 5 6 7 8 3 3 3 3 3 3 3 3 3 3 3 3 3 3 3 3 3 3 3 3 3 3 3 3 9 0   @ / w e r 3 3 3 3 3 3 3 ",
"3 3 3 3 3 3 3 3 3 3 3 3 3 3 3 3 3 4 _ . X 5 6 7 8 3 3 3 3 3 3 3 3 3 3 3 3 3 3 3 3 3 3 3 3 3 3 3 3 9 0   @ / w e r 3 3 3 3 3 3 3 ",
"3 3 3 3 3 3 3 3 3 3 3 3 3 3 3 3 3 4 _ . X 5 6 7 8 3 3 3 3 3 3 3 3 3 3 3 3 3 3 3 3 3 3 3 3 3 3 3 3 9 0   @ / w e r 3 3 3 3 3 3 3 ",
"3 3 3 3 3 3 3 3 3 3 3 3 3 3 3 3 3 4 _ . X 5 6 7 8 3 3 3 3 3 3 3 3 3 3 3 3 3 3 3 3 3 3 3 3 3 3 3 3 9 0   @ / w e r 3 3 3 3 3 3 3 ",
"3 3 3 3 3 3 3 3 3 3 3 3 3 3 3 3 3 4 _ . X 5 6 7 8 3 3 3 3 3 3 3 3 3 3 3 3 3 3 3 3 3 3 3 3 3 3 3 3 9 0   @ / w e r 3 3 3 3 3 3 3 ",
"3 3 3 3 3 3 3 3 3 3 3 3 3 3 3 3 3 4 _ . X 5 6 7 8 3 3 3 3 3 3 3 3 3 3 3 3 3 3 3 3 3 3 3 3 3 3 3 3 9 0   @ / w e r 3 3 3 3 3 3 3 ",
"3 3 3 3 3 3 3 3 3 3 3 3 3 3 3 3 3 4 _ . X 5 6 7 8 3 3 3 3 3 3 3 3 3 3 3 3 3 3 3 3 3 3 3 3 3 3 3 3 9 0   @ / w e r 3 3 3 3 3 3 3 ",
"3 3 3 3 3 3 3 3 3 3 3 3 3 3 3 3 3 4 _ . X 5 6 7 8 3 3 3 3 3 3 3 3 3 3 3 3 3 3 3 3 3 3 3 3 3 3 3 3 9 0   @ / w e r 3 3 3 3 3 3 3 ",
"3 3 3 3 3 3 3 3 3 3 3 3 3 3 3 3 3 4 _ . X 5 6 7 8 3 3 3 3 3 3 3 3 3 3 3 3 3 3 3 3 3 3 3 3 3 3 3 3 9 0   @ / w e r 3 3 3 3 3 3 3 ",
"3 3 3 3 3 3 3 3 3 3 3 3 3 3 3 3 3 4 _ . X 5 6 7 8 3 3 3 3 3 3 3 3 3 3 3 3 3 3 3 3 3 3 3 3 3 3 3 3 9 0   @ / w e r 3 3 3 3 3 3 3 ",
"e e e e e e e e e e e e e e e e e d  .. X 5 6 e e e e e e e e e e e e e e e e e e e e e e e e e e f g   @ / w e e e e e e e e e ",
"e e e e e e e e e e e e e e e e e d  .. X 5 6 e e e e e e e e e e e e e e e e e e e e e e e e e e f g   @ / w e e e e e e e e e ",
"B B B B B B B B B B B B B B B B B B B V C Z A B B B B B B B B B B B B B B B B B B B B B B B B B B B B B D / G B B B B B B B B B ",
"B B B B B B B B B B B B B B B B B B B V C Z A B B B B B B B B B B B B B B B B B B B B B B B B B B B B B D / G B B B B B B B B B "
};
